<?xml version="1.0" encoding="UTF-8"?>
<svg xmlns="http://www.w3.org/2000/svg" viewBox="0 0 512 512">
    <g>
        <path fill="#0ACF83" d="M392.1,66.2c0-33.2-27-60.2-60.2-60.2h-271v60.2h271C365.1,66.2,392.1,33,392.1,66.2z"/>
        <path fill="#8866FF" d="M60.9,126.4v60.2h210.8c33.2,0,60.2-27,60.2-60.2s-27-60.2-60.2-60.2H60.9V126.4z"/>
        <path fill="#FF7262" d="M60.9,246.7v60.2h150.6c33.2,0,60.2-27,60.2-60.2s-27-60.2-60.2-60.2H60.9V246.7z"/>
        <path fill="#FFDB12" d="M60.9,427.3H152c50.3,0,91.1-40.8,91.1-91.1c0-50.3-40.8-91.1-91.1-91.1H60.9V427.3z"/>
        <path fill="#58AED3" d="M331.9,367v60.2h120.5v-60.2H331.9z"/>
        <path fill="#58AED3" d="M271.7,367c0,33.2,27,60.2,60.2,60.2V306.8C298.7,306.8,271.7,333.8,271.7,367z"/>
        <path fill="#58AED3" d="M331.9,186.7h120.5v120.5H331.9V186.7z"/>
    </g>
</svg>
