<?xml version="1.0" encoding="UTF-8"?>
<svg xmlns="http://www.w3.org/2000/svg" viewBox="0 0 512 512">
    <g>
        <path fill="#7952B3" d="M216.9,292.4h78.3v-28.7h-78.3V292.4z"/>
        <path fill="#7952B3" d="M324.9,321.1c-8.8,0-16.9,3-23.3,8.2v-6.1h-27.6v115h27.6v-40c6.3,5.1,14.5,8.2,23.3,8.2c25,0,45.2-22.2,45.2-42.7C369.9,343.3,349.6,321.1,324.9,321.1z M321.6,378.9c-9.9,0-17.8-8.2-17.8-18.1c0-9.9,8.2-17.8,17.8-17.8c9.9,0,17.8,8.2,17.8,17.8S331.4,378.9,321.6,378.9z"/>
        <path fill="#7952B3" d="M406.2,321.1c-25,0-45.2,22.2-45.2,42.7c0,20.5,20.5,42.4,45.2,42.4c24.4,0,45.2-21.9,45.2-42.4C451.1,343.3,430.9,321.1,406.2,321.1z M406.2,378.9c-9.9,0-17.8-8.2-17.8-18.1c0-9.9,8.2-17.8,17.8-17.8c9.9,0,17.8,8.2,17.8,17.8C423.7,370.6,415.8,378.9,406.2,378.9z"/>
        <path fill="#7952B3" d="M220.5,321.1c-25,0-45.2,22.2-45.2,42.7c0,20.5,20.5,42.4,45.2,42.4c24.4,0,45.2-21.9,45.2-42.4C265.4,343.3,245.2,321.1,220.5,321.1z M220.5,378.9c-9.9,0-17.8-8.2-17.8-18.1c0-9.9,8.2-17.8,17.8-17.8c9.9,0,17.8,8.2,17.8,17.8C238.3,370.6,230.4,378.9,220.5,378.9z"/>
        <path fill="#7952B3" d="M149.3,321.1c-8.8,0-16.9,3-23.3,8.2v-6.1H98.5v115h27.6v-40c6.3,5.1,14.5,8.2,23.3,8.2c25,0,45.2-22.2,45.2-42.7C194.2,343.3,174,321.1,149.3,321.1z M145.9,378.9c-9.9,0-17.8-8.2-17.8-18.1c0-9.9,8.2-17.8,17.8-17.8c9.9,0,17.8,8.2,17.8,17.8C163.7,370.6,155.8,378.9,145.9,378.9z"/>
        <path fill="#7952B3" d="M434.7,263.7c-13.6-15.1-36.7-65.3-48.8-110.2c-36.7-3-74-3-110.7-3c-36.7,0-74,0-110.7,3c-12.1,44.9-35.2,95.1-48.8,110.2C69.2,315.9,34,318.3,15.6,329c9.1,80.5,65.9,128.4,74.9,135.7c50.3,40,107,47.3,166,47.3c59,0,115.7-7.3,166-47.3c9.1-7.3,65.9-55.2,74.9-135.7C478.6,318.3,443.5,315.9,434.7,263.7z M256,33.6c26.8,0,47.6,0,65.3,0.7c-9.9,42.4-28,96.6-41.5,112.6c-5.2,6.6-14.9,13.7-23.8,13.7c-9.1,0-19-7.3-23.8-13.7c-13.6-15.8-31.7-70.2-41.5-112.6C209,33.6,229.5,33.6,256,33.6z M101.2,171.3c14.3-1.5,29.6-2.2,45.5-2.8c9.1,32.5,19.8,64.6,33.3,82.6c-20.5,9.4-36.7,29.2-36.7,52.9c0,32.1,26.1,58.2,58.2,58.2c32.1,0,58.2-26.1,58.2-58.2c0-24.6-15.4-44.9-36.7-53.6v-82.6h70v82.6c-21.2,8.7-36.7,29-36.7,53.6c0,32.1,26.1,58.2,58.2,58.2c32.1,0,58.2-26.1,58.2-58.2c0-23.8-16.1-43.5-36.7-52.9c13.6-18,24.4-50.1,33.3-82.6c15.8,0.7,31,1.5,45.5,2.8c9.9,41.7,14.9,91.2,13.6,121.1c-0.7,11.7-2.2,18-4.7,23.8c-2.2,4.7-9.1,3.6-12.8,1.5c-26.8-17.3-39.7-23.8-70-14.3c-18,6.2-35.9,4-53.6,34.8c-2.9,4.7-5.2,6.6-9.1,6.6s-6.2-2.2-9.1-6.6c-18-30.7-35.2-28.5-53.6-34.8c-30.3-9.4-43.2-3-70,14.3c-3.6,2.2-10.6,3.3-12.8-1.5c-2.5-5.8-4-12.1-4.7-23.8C86.6,262.5,91.3,213,101.2,171.3z"/>
    </g>
</svg>
