<?xml version="1.0" encoding="UTF-8"?>
<svg xmlns="http://www.w3.org/2000/svg" viewBox="0 0 512 512">
    <g>
        <path fill="#00599C" d="M302.1,101.1l-92.1,0V71h92.1V101.1z M302.1,101.1"/>
        <path fill="#004482" d="M160.7,280.5h-50.6l-8.6,49h-49l67.8-258.8h83.8l67,258.8h-51L212,280.5H160.7z M206,246.5l-22.1-91.5l-22.6,91.5H206z"/>
        <path fill="#659AD2" d="M378.7,246.3c0,10.2-1.4,18.9-4.2,26c-2.8,7.1-6.4,12.8-10.9,17.1c-4.5,4.3-9.5,7.4-15.2,9.4c-5.7,1.9-11.5,2.9-17.3,2.9c-5.5,0-10.8-0.9-15.9-2.6c-5.1-1.7-9.7-4.5-13.8-8.2c-4.1-3.7-7.3-8.6-9.7-14.6c-2.4-6-3.6-13.3-3.6-21.9V151.9h43v91.1c0,4,0.5,7.1,1.4,9.2c1,2.1,2.1,3.7,3.5,4.8c1.3,1,2.8,1.7,4.4,1.9c1.6,0.2,3.1,0.4,4.4,0.4c4.1,0,7.7-1.4,10.9-4.1c3.2-2.7,4.8-7.3,4.8-13.8v-89.4h42.9V246.3z"/>
        <path fill="#00599C" d="M399,147.6l23.2,0l44.8,94.9L512,147.6V335h-44V238.9l-44.9,91.6l-45.1-91.6v96.1h-44V147.6H399z"/>
        <path fill="#004482" d="M0,147.5h49.9V335H0V147.5z"/>
    </g>
</svg>
