<?xml version="1.0" encoding="UTF-8"?>
<svg xmlns="http://www.w3.org/2000/svg" viewBox="0 0 512 512">
    <g>
        <path fill="#2965F1" d="M71.8,460.8L38.4,100.8h435.2l-33.4,360.1l-184.5,51.1L71.8,460.8z"/>
        <path fill="#265DE4" d="M405.2,431.6l28.5-320.1H256v353.5L405.2,431.6z"/>
        <path fill="#EBEBEB" d="M256,268.6h-70.4l-4.9-54.4H256v-53.1H124.7l1.3,14.3l13.2,147.8H256V268.6L256,268.6z M256,372.6l-0.3,0.1l-60.6-16.4l-3.9-43.3h-54.5l7.6,85.1l111.3,30.9l0.2-0.1V372.6L256,372.6z"/>
        <path fill="#FFFFFF" d="M255.8,268.6v54.4h67.3l-6.3,71.1l-61,16.4v56.3l111.4-30.9l0.8-9.2l12.8-143.1l1.3-14.3H255.8L255.8,268.6z M255.8,161.1v53.1h131.7l1.1-12.2l2.5-27.2l1.3-13.7H255.8L255.8,161.1z"/>
    </g>
</svg>
