<?xml version="1.0" encoding="UTF-8"?>
<svg xmlns="http://www.w3.org/2000/svg" viewBox="0 0 512 512">
    <g>
        <path fill="#F24E1E" d="M52.4,267.9c10.2-11.1,22.6-16.8,37.1-16.8c14.5,0,25.2,4.7,32.3,14.1c7.1,9.4,10.6,22.6,10.6,39.6c0,15.6-4.3,28.4-12.9,38.2c-8.6,9.9-19.1,14.8-31.6,14.8c-11,0-19.7-3.4-26.2-10.2v44.9H38.2V254h21.9L52.4,267.9z M90.3,332.8c5.5-6.1,8.2-15.1,8.2-27c0-11-2.5-19.7-7.5-26.1c-5-6.4-11.4-9.5-19.4-9.5c-8.1,0-14.6,3-19.6,9.1c-5,6.1-7.5,14.5-7.5,25.2c0,11.4,2.5,20.3,7.5,26.8c5,6.4,11.7,9.6,20.3,9.6C79.8,340.9,84.9,338.2,90.3,332.8L90.3,332.8z"/>
        <path fill="#F24E1E" d="M181.5,251.1c12.6,0,22.9,3.7,31.1,11c8.1,7.3,12.2,16.8,12.2,28.4c0,7.7-1.8,14.5-5.5,20.5c-3.7,6-9.4,10.8-17.1,14.3c-7.7,3.5-17.2,5.2-28.4,5.2h-28.4v-79.5L181.5,251.1L181.5,251.1z M179.9,311.6c12,0,21-2.5,27.1-7.5c6.1-5,9.1-12.1,9.1-21.1c0-8.4-2.7-15.2-8.1-20.3c-5.4-5.1-12.9-7.7-22.5-7.7h-28.6v56.5L179.9,311.6L179.9,311.6z"/>
        <path fill="#F24E1E" d="M231.7,357V252.1h23.5v104.9C255.2,357,231.7,357,231.7,357z"/>
        <path fill="#FFB21E" d="M266.2,152.5h23.5v204.5h-23.5V152.5z"/>
        <path fill="#0ACF83" d="M297.4,357V252.1h23.5v104.9C321,357,297.4,357,297.4,357z"/>
        <path fill="#0ACF83" d="M329,357V252.1h23.5v104.9C352.6,357,329,357,329,357z"/>
        <path fill="#0ACF83" d="M432.4,252.1v104.9h-21.4v-13.4c-4.9,9.7-14.1,14.6-27.5,14.6c-10.8,0-19.4-3.6-25.9-10.7c-6.5-7.1-9.7-16.2-9.7-27.4v-68.1h23.5v61.7c0,7.5,1.8,13.4,5.3,17.7c3.5,4.3,8.4,6.4,14.6,6.4c6.9,0,12.3-2.4,16.3-7.3c4-4.8,6-11.3,6-19.3v-59.1C413.6,252.1,432.4,252.1,432.4,252.1z"/>
        <path fill="#A259FF" d="M481.2,251.1c11.4,0,20.7,3.7,27.9,11s10.8,17.1,10.8,29.3c0,12.2-3.6,22.1-10.8,29.6c-7.2,7.5-16.5,11.3-27.9,11.3c-12.6,0-22.4-5.1-29.5-15.3v67.2h-23.5V252.1h21.9l1,14.8c3.5-5.6,8.2-9.8,14-12.8C451,251.6,456.9,251.1,481.2,251.1L481.2,251.1z M474.4,313.2c5.4-5.8,8.1-13.8,8.1-24c0-9.6-2.7-17.2-8.2-22.9c-5.5-5.7-12.4-8.5-20.7-8.5c-7.8,0-14.4,2.8-19.8,8.3c-5.4,5.6-8.1,12.9-8.1,21.9c0,9.2,2.7,16.8,8.1,22.7c5.4,5.9,12,8.9,19.8,8.9C461.6,319.6,469,317.4,474.4,313.2L474.4,313.2z"/>
    </g>
</svg>
