<?xml version="1.0" encoding="UTF-8"?>
<svg xmlns="http://www.w3.org/2000/svg" viewBox="0 0 512 512">
    <g>
        <path fill="#E44D26" d="M71.8,460.8L38.4,100.8h435.2l-33.4,360.1l-184.6,51.1L71.8,460.8z"/>
        <path fill="#F16529" d="M405.2,431.6l28.5-320.1H256v353.5L405.2,431.6z"/>
        <path fill="#EBEBEB" d="M256,214.2h-85.5l-5.9-66.3H256v-64.7H100.9l1.5,17.3l15.9,179.3H256V214.2z M256,355.1h-0.2l-71.2-19.2l-4.5-51h-64.3l9,100.4l130.8,36.3l0.3-0.1V355.1z"/>
        <path fill="#FFFFFF" d="M255.9,214.2v66.3h82.1l-7.7,86.7l-74.4,20.1v69.4l136.7-37.9l1-11.2l15.7-175.6l1.6-17.7h-155V214.2z M255.9,83.2v64.7h167.5l1.4-15.5l3.1-34.6l1.5-14.6H255.9z"/>
    </g>
</svg>
