<?xml version="1.0" encoding="UTF-8"?>
<svg xmlns="http://www.w3.org/2000/svg" viewBox="0 0 512 512">
    <g>
        <path fill="#000000" d="M107.2,111.1l144.9-44.9v335.7L107.2,346V111.1z"/>
        <path fill="#000000" opacity="0.1" d="M397.5,111.1L252.1,66.2v335.7L397.5,346V111.1z"/>
        <path fill="#000000" d="M397.5,111.1l-145.4,89.2L107.2,111.1l145.4-44.9L397.5,111.1z"/>
        <path fill="#8C8C8C" d="M180.5,228.6v124.7l-73.3-40.9v-124L180.5,228.6z"/>
        <path fill="#8C8C8C" d="M180.5,228.6l73.3,40.9v124.7l-73.3-40.9V228.6z"/>
        <path fill="#8C8C8C" d="M107.2,188.4l145.4,89.2v-75.9l-145.4-89.2V188.4z"/>
        <path fill="#8C8C8C" d="M107.2,188.4l73.3,40.9l72.1-48.4l-73.3-40.2L107.2,188.4z"/>
        <path fill="#8C8C8C" d="M253.5,228.6l143.9-76.9v-40.9l-143.9,89.2V228.6z"/>
        <path fill="#8C8C8C" d="M323.5,188.4l73.9-36.7l-73.9-40.9l-72.1,40.9L323.5,188.4z"/>
    </g>
</svg>
