<?xml version="1.0" encoding="UTF-8"?>
<svg xmlns="http://www.w3.org/2000/svg" viewBox="0 0 512 512">
    <g>
        <path fill="#3C873A" d="M268.5,4.7c-13.6-7.8-30-7.8-43.6,0L44.4,122.3c-13.6,7.8-22,22.3-22,37.9v235.2c0,15.7,8.4,30.2,22,37.9l180.5,117.6c13.6,7.8,30,7.8,43.6,0l180.5-117.6c13.6-7.8,22-22.3,22-37.9V160.2c0-15.7-8.4-30.2-22-37.9L268.5,4.7z"/>
        <path fill="#FFFFFF" d="M305.9,220v45.5h-27.1v-45.1c0-13-6.9-19.6-17.9-19.6c-14.3,0-20.5,9.4-20.5,25.7v66.8h-27.1V194.1h26.4v16.4c7-12.8,19.2-18.8,35.3-18.8C294.3,191.7,305.9,202,305.9,220z"/>
        <path fill="#FFFFFF" d="M147.5,267.9h-39.6v27.6h-27.1V194.1h68.3c29.7,0,47.2,15.1,47.2,36.8C196.2,252.8,178.7,267.9,147.5,267.9zM143.2,244.3c11.2,0,17.2-4.9,17.2-13c0-8.3-6-13.2-17.2-13.2h-35.3v26.2H143.2z"/>
        <path fill="#FFFFFF" d="M382.7,193.3l-82.9,193.7h-30.4l30.9-67.9l-50-125.8h32l33.5,91.1l33.6-91.1H382.7z"/>
    </g>
</svg>
