<?xml version="1.0" encoding="UTF-8"?>
<svg xmlns="http://www.w3.org/2000/svg" viewBox="0 0 512 512">
    <g>
        <path fill="#4285F4" d="M263.6,76.5l121.5,210.5c-13.8,2.8-24.1,15-24.1,29.7c0,14.5,10.2,26.7,23.9,29.6l-121.5,210.5c-4.1,0.6-8.4,0.9-12.7,0.9c-46.2,0-83.8-37.6-83.8-83.8c0-15.9,4.4-30.8,12.1-43.5l0,0L41,349.6v-187l138.4-76.9c12.7-8,27.8-12.7,44-12.7C242.9,73,253.7,74.2,263.6,76.5z"/>
        <path fill="#EA4335" d="M344,87l-138.4,76.9c14.1,10.6,24.3,26.3,28.1,44.4h175.4v91.4H233.6c-3.8,18-13.9,33.5-27.8,44.1L344,433.7c37.4-29.9,61.3-76,61.3-127.5C405.3,212.5,383,122.7,344,87z"/>
        <path fill="#FBBC05" d="M41,349.6l125.3,45.6c6.3-9.6,14.6-17.6,24.2-23.7l-80.7-139.8h172.2V140.3H109.8L42,185.3v164.3H41z"/>
    </g>
</svg>
