<?xml version="1.0" encoding="UTF-8"?>
<svg xmlns="http://www.w3.org/2000/svg" viewBox="0 0 512 512">
    <g>
        <path fill="#FF4154" d="M403,192.1h-58.7v174.3h62.5c26.6,0,48.2-10.8,48.2-48.2v-78C454.9,210.7,440.2,192.1,403,192.1z M410.7,310.4c0,12-6,18-18,18h-6v-94h6c12,0,18,6,18,18V310.4z"/>
        <path fill="#FF4154" d="M234.7,366.4h41.3V192.1h-41.3V366.4z"/>
        <path fill="#FF4154" d="M139.4,192.1H64.9v174.3h41.3V310.4h33.2c29.4,0,53.1-18.6,53.1-59.2C192.4,210.7,168.8,192.1,139.4,192.1z M139.4,268.4h-33.2v-36h33.2c6.9,0,11.5,4.8,11.5,18C150.9,263.5,146.3,268.4,139.4,268.4z"/>
    </g>
</svg>
