<?xml version="1.0" encoding="UTF-8"?>
<svg xmlns="http://www.w3.org/2000/svg" viewBox="0 0 512 512">
    <g>
        <path fill="#06B6D4" d="M256,25.6C131.8,25.6,30.9,126.5,30.9,250.7c0,124.2,100.9,225.1,225.1,225.1S481.1,374.9,481.1,250.7C481.1,126.5,380.2,25.6,256,25.6z M409.8,226.1l-46.7,46.7c-3.5,3.5-9.2,3.5-12.6,0l-105-105c-3.5-3.5-3.5-9.2,0-12.6l46.7-46.7c3.5-3.5,9.2-3.5,12.6,0l105,105C413.3,216.9,413.3,222.6,409.8,226.1z M114.9,295.5c-3.5-3.5-3.5-9.2,0-12.6l129.3-129.3c3.5-3.5,9.2-3.5,12.6,0l46.7,46.7c3.5,3.5,3.5,9.2,0,12.6L174.2,342.2c-3.5,3.5-9.2,3.5-12.6,0L114.9,295.5z M324.1,400.2l-46.7-46.7c-3.5-3.5-3.5-9.2,0-12.6l129.3-129.3c3.5-3.5,9.2-3.5,12.6,0l46.7,46.7c3.5,3.5,3.5,9.2,0,12.6L336.8,400.2C333.3,403.7,327.6,403.7,324.1,400.2z"/>
    </g>
</svg>
