<?xml version="1.0" encoding="UTF-8"?>
<svg xmlns="http://www.w3.org/2000/svg" viewBox="0 0 512 512">
    <g>
        <path fill="#FF6F00" d="M63.8,63.8v384.3h384.3V63.8H63.8z M166.9,321.1l-41.3,76.9H84.7l49-88.7c-2.5-7.2-4.9-15.2-7.2-24c-2.2-8.8-4.3-17.6-6.2-26.5c-1.9-8.8-3.7-17.1-5.3-24.7c-1.6-7.7-2.8-14-3.8-19h43.1L169,289C168.5,299.8,167.5,311,166.9,321.1z M275.5,398h-39.7c-9.1-15.7-15.9-35.5-20.3-59.5c-4.3,27.2-12.2,47.1-23.6,59.5h-42.8c9-10,16.8-23.6,23.5-40.8c6.7-17.2,12.3-39,17-65.3c-0.8-6.6-1.9-14.3-3.3-23.1c-1.4-8.8-3-18.2-4.8-28.1c-1.8-9.9-3.7-19.6-5.7-29.1c-2-9.5-4-18.2-6-26h45.3l22.6,114.5c4-30.8,8.9-56.8,14.6-78.2c5.8-21.4,14-36.3,24.7-44.8h-0.9c12.5,0,21.8,2.7,27.8,8.2c6,5.4,9,15.2,9,29.3c0,9.4-1,18.9-2.9,28.4c-2,9.5-4.2,18.9-6.9,28.1c-2.6,9.2-5.4,18.2-8.3,27c-2.9,8.8-5.6,17-8.1,24.7L275.5,398z M427.3,398h-38.7c-10-17.8-18.1-35-24.2-51.6c-6.1-16.6-12.8-33-20-49.2c4.3,16.6,7.8,33.5,10.6,50.8c2.8,17.2,5.2,33.9,7.4,50h-39.7c-1.4-16.1-3.3-31.8-5.8-47.2c-2.5-15.3-5.2-30.1-8.3-44.3c-3.1-14.2-6.3-27.7-9.7-40.6c-3.4-12.9-6.7-24.7-10-35.5H323c5.6,20.8,10.4,41.5,14.6,62c4.1,20.5,8.6,41.1,13.3,61.8c3.5-4,7.1-9.5,10.7-16.5c3.7-7,7.2-14.6,10.5-22.9c3.4-8.3,6.5-16.7,9.3-25.4c2.8-8.6,5.2-16.6,7.2-24c-4.9,0.8-9.9,1.4-14.7,2c-4.9,0.5-10.1,0.8-15.6,0.8v-35.5c6.3,0,13.4-0.5,21.2-1.4c7.9-0.9,15.6-2,23.1-3.3c3.4-7.4,6.5-14.1,9.3-20.3h42.1c-3.4,7.4-7,16.6-10.8,27.6c-3.8,11-7.7,23-11.7,36c-4,13-7.9,26.7-11.8,41c-3.8,14.3-7.3,28.2-10.4,41.5C427.3,398,427.3,398,427.3,398z"/>
    </g>
</svg>
